<svg width="800" height="600" viewBox="0 0 800 600" fill="none" xmlns="http://www.w3.org/2000/svg">
  <!-- Background -->
  <rect width="800" height="600" rx="20" fill="#F8FAFF"/>
  
  <!-- Dashboard Frame -->
  <rect x="50" y="50" width="700" height="500" rx="10" fill="white" stroke="#4361EE" stroke-width="2"/>
  
  <!-- Header -->
  <rect x="50" y="50" width="700" height="60" rx="10" fill="#4361EE"/>
  <text x="100" y="85" font-family="Arial" font-size="18" font-weight="bold" fill="white">Career Analytics Dashboard</text>
  
  <!-- Sidebar -->
  <rect x="50" y="110" width="150" height="440" fill="#F8FAFF"/>
  
  <!-- Sidebar Menu Items -->
  <rect x="70" y="140" width="110" height="40" rx="5" fill="#4361EE" opacity="0.1"/>
  <text x="100" y="165" font-family="Arial" font-size="14" fill="#4361EE">Overview</text>
  
  <text x="100" y="215" font-family="Arial" font-size="14" fill="#555">Skills</text>
  <text x="100" y="265" font-family="Arial" font-size="14" fill="#555">Network</text>
  <text x="100" y="315" font-family="Arial" font-size="14" fill="#555">Jobs</text>
  <text x="100" y="365" font-family="Arial" font-size="14" fill="#555">Learning</text>
  <text x="100" y="415" font-family="Arial" font-size="14" fill="#555">Settings</text>
  
  <!-- Main Content Area -->
  
  <!-- Career Growth Chart -->
  <rect x="220" y="130" width="500" height="200" rx="5" fill="white" stroke="#DDD" stroke-width="1"/>
  <text x="240" y="160" font-family="Arial" font-size="16" font-weight="bold" fill="#333">Career Growth Trajectory</text>
  
  <!-- Chart Lines -->
  <path d="M240 290 L740 290" stroke="#EEE" stroke-width="1"/>
  <path d="M240 250 L740 250" stroke="#EEE" stroke-width="1"/>
  <path d="M240 210 L740 210" stroke="#EEE" stroke-width="1"/>
  
  <!-- Chart Data -->
  <path d="M260 270 L320 250 L380 260 L440 230 L500 210 L560 190 L620 180 L680 150 L720 140" 
        stroke="#4361EE" stroke-width="3" fill="none"/>
  <path d="M260 270 L320 250 L380 260 L440 230 L500 210 L560 190 L620 180 L680 150 L720 140" 
        stroke="#4CC9F0" stroke-width="3" fill="none" stroke-dasharray="5,5"/>
  
  <!-- Chart Points -->
  <circle cx="260" cy="270" r="5" fill="#4361EE"/>
  <circle cx="320" cy="250" r="5" fill="#4361EE"/>
  <circle cx="380" cy="260" r="5" fill="#4361EE"/>
  <circle cx="440" cy="230" r="5" fill="#4361EE"/>
  <circle cx="500" cy="210" r="5" fill="#4361EE"/>
  <circle cx="560" cy="190" r="5" fill="#4361EE"/>
  <circle cx="620" cy="180" r="5" fill="#4361EE"/>
  <circle cx="680" cy="150" r="5" fill="#4361EE"/>
  <circle cx="720" cy="140" r="5" fill="#4361EE"/>
  
  <!-- Chart Legend -->
  <circle cx="240" cy="320" r="5" fill="#4361EE"/>
  <text x="250" y="325" font-family="Arial" font-size="12" fill="#555">Your Path</text>
  <line x1="350" y1="320" x2="380" y2="320" stroke="#4CC9F0" stroke-width="2" stroke-dasharray="5,5"/>
  <text x="390" y="325" font-family="Arial" font-size="12" fill="#555">Industry Average</text>
  
  <!-- Skills Section -->
  <rect x="220" y="350" width="240" height="200" rx="5" fill="white" stroke="#DDD" stroke-width="1"/>
  <text x="240" y="380" font-family="Arial" font-size="16" font-weight="bold" fill="#333">Key Skills</text>
  
  <!-- Skill Bars -->
  <text x="240" y="410" font-family="Arial" font-size="12" fill="#555">Data Analysis</text>
  <rect x="240" y="420" width="200" height="10" rx="5" fill="#EEE"/>
  <rect x="240" y="420" width="180" height="10" rx="5" fill="#4361EE"/>
  
  <text x="240" y="450" font-family="Arial" font-size="12" fill="#555">Leadership</text>
  <rect x="240" y="460" width="200" height="10" rx="5" fill="#EEE"/>
  <rect x="240" y="460" width="150" height="10" rx="5" fill="#4361EE"/>
  
  <text x="240" y="490" font-family="Arial" font-size="12" fill="#555">Communication</text>
  <rect x="240" y="500" width="200" height="10" rx="5" fill="#EEE"/>
  <rect x="240" y="500" width="190" height="10" rx="5" fill="#4361EE"/>
  
  <!-- Opportunities Section -->
  <rect x="480" y="350" width="240" height="200" rx="5" fill="white" stroke="#DDD" stroke-width="1"/>
  <text x="500" y="380" font-family="Arial" font-size="16" font-weight="bold" fill="#333">Recommended Opportunities</text>
  
  <!-- Opportunity Cards -->
  <rect x="500" y="400" width="200" height="40" rx="5" fill="#F8FAFF"/>
  <text x="510" y="420" font-family="Arial" font-size="12" font-weight="bold" fill="#333">Senior Data Analyst</text>
  <text x="510" y="435" font-family="Arial" font-size="10" fill="#555">TechCorp Inc.</text>
  
  <rect x="500" y="450" width="200" height="40" rx="5" fill="#F8FAFF"/>
  <text x="510" y="470" font-family="Arial" font-size="12" font-weight="bold" fill="#333">Product Manager</text>
  <text x="510" y="485" font-family="Arial" font-size="10" fill="#555">Innovate Solutions</text>
  
  <rect x="500" y="500" width="200" height="40" rx="5" fill="#F8FAFF"/>
  <text x="510" y="520" font-family="Arial" font-size="12" font-weight="bold" fill="#333">Data Science Lead</text>
  <text x="510" y="535" font-family="Arial" font-size="10" fill="#555">Future Analytics</text>
  
  <!-- Decorative Elements -->
  <circle cx="720" cy="80" r="15" fill="white" opacity="0.2"/>
  <circle cx="680" cy="80" r="10" fill="white" opacity="0.2"/>
</svg> 